# xmcd
#
# Track frame offsets:
#	150
#	46679
#	84375
#	108049
#	139787
#	179364
#	213311
#	241017
#	264352
#	285623
#
# Disc length: 4122 seconds
#
# Revision: 0
# Processed by: cddbd v1.5.2PL0 Copyright (c) Steve Scherf et al.
# Submitted via: EasyCDDAExtractor 15.2.5.1
#
DISCID=7b10180a
DTITLE=Trio Arbos - Play It Again
DYEAR=2011
DGENRE=Chamber Music
TTITLE0=Kenji Bunch. Slow Dance
TTITLE1=Marjan Mozetich. Scales of Joy and Sorrow. I. Slow and Fast
TTITLE2=Marjan Mozetich. Scales of Joy and Sorrow. II. Arabesque
TTITLE3=Marjan Mozetich. Scales of Joy and Sorrow. III. Fast and Slow
TTITLE4=Jorge Grundman. A Walk across Adolescence
TTITLE5=Elena Kats-Chernin. Calliope Dreaming
TTITLE6=Paul Schoenfield. Cafe Music. I. Allegro
TTITLE7=Paul Schoenfield. Cafe Music. II. Rubato. Andante Moderato
TTITLE8=Paul Schoenfield. Cafe Music. III. Presto
TTITLE9=Chick Corea. Addendum
EXTD=
EXTT0=
EXTT1=
EXTT2=
EXTT3=
EXTT4=
EXTT5=
EXTT6=
EXTT7=
EXTT8=
EXTT9=
PLAYORDER=
